<svg version="1.0" xmlns="http://www.w3.org/2000/svg"
 width="512.000000pt" height="512.000000pt" viewBox="0 0 512.000000 512.000000"
 preserveAspectRatio="xMidYMid meet">

<g transform="translate(0.000000,512.000000) scale(0.100000,-0.100000)"
fill="#000000" stroke="none">
<path d="M2475 5013 c-27 -8 -58 -19 -67 -24 -26 -13 -101 -39 -115 -39 -7 0
-37 -11 -67 -25 -30 -14 -60 -25 -67 -25 -20 0 -109 -34 -109 -42 0 -5 -9 -8
-20 -8 -11 0 -43 -9 -72 -20 -29 -11 -59 -20 -66 -20 -7 0 -34 -9 -59 -21 -25
-11 -71 -27 -102 -35 -30 -8 -62 -21 -71 -28 -8 -7 -32 -16 -53 -19 -21 -3
-52 -13 -69 -21 -17 -9 -36 -16 -43 -16 -7 0 -25 -6 -41 -14 -16 -8 -62 -24
-103 -34 -40 -11 -77 -25 -80 -31 -4 -5 -29 -15 -56 -21 -67 -15 -115 -32
-115 -42 0 -4 -6 -8 -13 -8 -22 0 -149 -40 -192 -60 -22 -10 -62 -24 -90 -30
-27 -6 -64 -20 -81 -31 -17 -10 -39 -19 -49 -19 -29 0 -134 -61 -165 -97 -16
-18 -33 -46 -37 -61 -3 -15 -12 -32 -18 -38 -35 -36 -31 -1725 4 -1768 6 -7
15 -45 21 -84 9 -62 32 -145 80 -282 27 -77 144 -319 159 -330 4 -3 11 -12 15
-20 23 -49 105 -170 114 -170 4 0 13 -12 19 -28 7 -15 31 -49 52 -77 22 -27
49 -61 60 -75 54 -67 118 -136 252 -269 191 -191 291 -280 454 -404 55 -42
109 -85 120 -96 11 -10 30 -24 43 -31 13 -6 31 -18 40 -26 34 -30 118 -91 142
-104 14 -7 32 -19 40 -27 17 -15 62 -47 130 -92 25 -17 54 -37 65 -46 11 -9
54 -38 95 -65 41 -27 81 -54 88 -60 45 -39 143 -54 188 -27 68 39 224 149 224
157 0 6 5 10 11 10 11 0 68 37 153 98 17 12 47 33 66 46 19 13 45 32 57 42 11
11 47 37 79 59 31 22 67 49 80 61 12 12 28 24 36 27 33 14 278 219 450 377
128 118 300 298 322 338 6 9 20 25 33 35 13 10 23 25 23 33 0 8 4 14 9 14 9 0
81 94 81 105 0 3 11 18 25 33 14 15 25 32 25 38 0 6 7 17 15 24 7 6 29 37 47
68 78 133 98 169 114 202 9 19 27 58 40 85 37 80 112 315 119 378 3 31 10 57
15 57 25 0 31 221 28 995 l-3 800 -33 50 c-46 69 -99 108 -184 135 -40 13 -75
26 -78 30 -7 9 -36 19 -99 36 -30 8 -60 19 -65 23 -6 5 -51 21 -101 36 -49 15
-109 35 -133 46 -23 11 -65 24 -92 30 -27 6 -52 15 -55 19 -3 5 -45 21 -93 35
-48 15 -91 31 -97 36 -5 5 -16 9 -25 9 -10 0 -31 7 -48 16 -17 8 -48 18 -69
21 -21 3 -45 12 -53 19 -9 7 -42 20 -73 28 -32 8 -77 24 -100 34 -50 23 -176
62 -200 62 -9 0 -17 3 -17 8 0 8 -89 42 -111 42 -8 0 -36 12 -64 25 -27 14
-57 25 -66 25 -15 0 -44 10 -114 39 -45 19 -134 41 -161 40 -16 0 -51 -8 -79
-16z m188 -523 c31 -11 66 -20 77 -20 11 0 20 -4 20 -8 0 -9 96 -42 121 -42 8
0 31 -9 51 -20 21 -11 55 -24 75 -29 53 -13 280 -90 329 -113 23 -10 56 -21
75 -24 19 -4 52 -15 74 -25 51 -23 195 -69 218 -69 9 0 17 -4 17 -8 0 -9 91
-42 113 -42 5 0 28 -9 51 -19 23 -11 75 -29 116 -42 41 -12 82 -26 90 -30 8
-3 39 -17 67 -30 l53 -24 0 -687 c0 -447 -3 -689 -10 -693 -5 -3 -10 -19 -10
-34 0 -44 -39 -221 -59 -265 -10 -23 -21 -53 -24 -67 -14 -57 -120 -259 -189
-361 -21 -30 -38 -58 -38 -63 0 -4 -11 -16 -25 -27 -14 -11 -25 -26 -25 -33 0
-8 -8 -20 -18 -27 -10 -7 -23 -21 -28 -30 -11 -21 -120 -143 -199 -224 -61
-62 -135 -130 -239 -219 -101 -86 -129 -109 -201 -165 -96 -75 -94 -73 -110
-87 -7 -7 -18 -13 -23 -13 -5 0 -17 -9 -28 -21 -10 -12 -36 -30 -56 -40 -21
-11 -38 -23 -38 -27 0 -4 -17 -16 -37 -27 -20 -11 -49 -30 -63 -41 -14 -12
-39 -30 -56 -40 -90 -56 -128 -80 -139 -91 -18 -18 -51 -16 -72 2 -10 9 -54
39 -98 68 -44 29 -89 60 -99 69 -11 10 -25 18 -31 18 -6 0 -32 18 -59 40 -26
22 -52 40 -56 40 -5 0 -16 7 -25 16 -23 23 -84 64 -95 64 -6 0 -10 4 -10 9 0
5 -33 33 -72 62 -40 29 -86 66 -102 81 -16 15 -38 30 -47 33 -10 3 -21 15 -24
26 -4 10 -10 19 -15 19 -20 0 -326 299 -405 396 -22 27 -52 61 -67 75 -16 15
-28 31 -28 36 0 4 -20 34 -45 65 -25 32 -45 62 -45 66 0 5 -9 17 -20 27 -11
10 -20 24 -20 30 0 7 -11 29 -25 49 -35 52 -122 244 -130 289 -4 20 -11 37
-15 37 -13 0 -60 255 -60 332 0 20 -4 40 -10 43 -6 4 -10 229 -10 641 l0 634
47 30 c26 17 54 30 63 30 9 0 20 4 25 8 11 9 89 36 153 52 23 6 42 14 42 19 0
4 26 14 58 21 31 7 75 20 97 30 22 10 74 28 115 40 41 13 93 31 115 40 22 10
68 25 103 34 35 9 70 23 78 31 9 8 25 15 36 15 25 0 229 68 242 81 6 5 22 9
36 9 14 0 42 9 62 20 21 11 59 25 85 30 27 6 66 19 88 29 135 62 217 73 308
41z"/>
<path d="M1850 3759 c-30 -4 -69 -15 -85 -23 -17 -9 -38 -16 -48 -16 -18 0
-77 -27 -87 -39 -3 -3 -18 -13 -35 -21 -34 -17 -159 -139 -195 -190 -54 -76
-111 -206 -132 -300 -24 -111 -34 -244 -20 -274 6 -12 15 -55 22 -96 14 -91
28 -140 47 -158 7 -7 13 -20 13 -28 0 -15 5 -24 68 -124 36 -57 107 -145 177
-217 22 -24 45 -49 52 -55 6 -7 37 -37 67 -67 31 -29 56 -57 56 -62 0 -5 11
-14 24 -20 13 -6 29 -22 35 -35 6 -13 17 -24 26 -24 8 0 15 -4 15 -10 0 -5
150 -161 334 -345 311 -313 336 -335 369 -335 19 0 46 6 59 13 19 9 587 572
665 659 7 7 18 19 25 26 127 125 298 300 298 304 0 3 17 23 37 44 48 51 148
204 157 240 4 16 12 32 18 35 10 6 30 80 45 164 3 17 10 36 16 43 14 17 14
241 0 278 -7 16 -19 64 -29 108 -10 48 -24 85 -35 94 -11 9 -19 24 -19 34 0
22 -81 140 -133 192 -77 77 -211 166 -253 166 -10 0 -32 7 -48 15 -77 41 -294
41 -371 1 -17 -9 -37 -16 -45 -16 -23 0 -100 -32 -100 -41 0 -5 -7 -9 -15 -9
-21 0 -113 -64 -160 -111 -5 -5 -22 -22 -37 -36 -16 -15 -28 -31 -28 -37 0 -6
-9 -22 -19 -35 l-18 -23 -24 38 c-25 41 -92 114 -104 114 -4 0 -14 9 -24 21
-29 37 -184 119 -223 119 -13 0 -33 7 -45 15 -41 29 -183 41 -293 24z"/>
</g>
</svg>
